<svg width="26" height="26" viewBox="0 0 26 26" fill="none" xmlns="http://www.w3.org/2000/svg">
  <rect x="0.732422" width="25.0103" height="25.0103" rx="5.71663" fill="#68CE61" style="fill:#68CE61;fill:color(display-p3 0.4078 0.8078 0.3804);fill-opacity:1;"/>
  <path d="M18.9186 7.24945C18.2209 6.54489 17.3899 5.98624 16.4741 5.60607C15.5582 5.22589 14.5759 5.03179 13.5843 5.03508C9.42953 5.03508 6.0433 8.42131 6.0433 12.5761C6.0433 13.9078 6.39334 15.2014 7.04776 16.3428L5.98242 20.2541L9.97742 19.204C11.0808 19.8052 12.3212 20.1248 13.5843 20.1248C17.7391 20.1248 21.1254 16.7385 21.1254 12.5837C21.1254 10.5672 20.3416 8.67243 18.9186 7.24945ZM13.5843 18.8464C12.4581 18.8464 11.3547 18.542 10.3883 17.9713L10.16 17.8343L7.78588 18.4583L8.41747 16.145L8.26528 15.9091C7.63943 14.91 7.30718 13.755 7.30648 12.5761C7.30648 9.12139 10.122 6.30587 13.5767 6.30587C15.2508 6.30587 16.826 6.96028 18.0055 8.14737C18.5896 8.72863 19.0525 9.4201 19.3673 10.1816C19.6821 10.9432 19.8426 11.7597 19.8394 12.5837C19.8546 16.0384 17.0391 18.8464 13.5843 18.8464ZM17.0238 14.1589C16.8336 14.0676 15.9052 13.611 15.7378 13.5425C15.5628 13.4816 15.4411 13.4512 15.3117 13.6338C15.1823 13.8241 14.8247 14.2502 14.7182 14.372C14.6116 14.5013 14.4975 14.5165 14.3072 14.4176C14.117 14.3263 13.5082 14.1208 12.7929 13.4816C12.2298 12.9794 11.857 12.363 11.7428 12.1728C11.6363 11.9826 11.7276 11.8836 11.8265 11.7847C11.9102 11.701 12.0168 11.564 12.1081 11.4575C12.1994 11.351 12.2374 11.2673 12.2983 11.1455C12.3592 11.0162 12.3288 10.9096 12.2831 10.8183C12.2374 10.727 11.857 9.79864 11.7048 9.41816C11.5526 9.0529 11.3928 9.09856 11.2786 9.09095H10.9134C10.784 9.09095 10.5862 9.13661 10.4112 9.32685C10.2438 9.51708 9.75674 9.97366 9.75674 10.902C9.75674 11.8304 10.434 12.7283 10.5253 12.8501C10.6166 12.9794 11.857 14.8818 13.7441 15.696C14.1931 15.8939 14.5431 16.008 14.8171 16.0917C15.266 16.2363 15.677 16.2135 16.0042 16.1678C16.3694 16.1145 17.1228 15.7112 17.275 15.2699C17.4348 14.8285 17.4348 14.4557 17.3815 14.372C17.3282 14.2883 17.2141 14.2502 17.0238 14.1589Z" fill="white" style="fill:white;fill-opacity:1;"/>
</svg>